<svg width="2000" height="2000" viewBox="0 0 2000 2000" fill="none" xmlns="http://www.w3.org/2000/svg">
<rect width="2000" height="2000" rx="500" fill="#005278"/>
<mask id="mask0_706_1910" style="mask-type:alpha" maskUnits="userSpaceOnUse" x="550" y="550" width="900" height="900">
<rect x="550" y="550" width="900" height="900" fill="#D9D9D9"/>
</mask>
<g mask="url(#mask0_706_1910)">
<path d="M1000 1000C1020.63 1000 1038.28 992.658 1052.97 977.971C1067.66 963.283 1075 945.627 1075 925.002C1075 904.377 1067.66 886.721 1052.97 872.033C1038.28 857.346 1020.63 850.002 1000 850.002C979.376 850.002 961.72 857.346 947.032 872.033C932.345 886.721 925.001 904.377 925.001 925.002C925.001 945.627 932.345 963.283 947.032 977.971C961.72 992.658 979.376 1000 1000 1000ZM1000 1275.63C1076.25 1205.63 1132.81 1142.03 1169.69 1084.85C1206.56 1027.66 1225 976.877 1225 932.502C1225 864.377 1203.28 808.596 1159.84 765.158C1116.41 721.721 1063.13 700.002 1000 700.002C936.876 700.002 883.595 721.721 840.157 765.158C796.72 808.596 775.001 864.377 775.001 932.502C775.001 976.877 793.438 1027.66 830.313 1084.85C867.188 1142.03 923.751 1205.63 1000 1275.63ZM1000 1375C899.376 1289.38 824.22 1209.85 774.532 1136.41C724.845 1062.97 700.001 995.002 700.001 932.502C700.001 838.752 730.157 764.064 790.47 708.439C850.782 652.814 920.626 625.002 1000 625.002C1079.38 625.002 1149.22 652.814 1209.53 708.439C1269.84 764.064 1300 838.752 1300 932.502C1300 995.002 1275.16 1062.97 1225.47 1136.41C1175.78 1209.85 1100.63 1289.38 1000 1375Z" fill="white"/>
</g>
<mask id="mask1_706_1910" style="mask-type:alpha" maskUnits="userSpaceOnUse" x="0" y="0" width="2000" height="2000">
<path d="M0 0H2000V2000H0V0Z" fill="#D9D9D9"/>
</mask>
<g mask="url(#mask1_706_1910)">
<path d="M1525.56 1801.11L1406.81 1682.36L1540.14 1551.11H1192.22V1384.44H1540.14L1408.89 1251.11L1525.56 1134.44L1858.89 1467.78L1525.56 1801.11ZM442.223 1717.78C396.389 1717.78 357.153 1701.46 324.514 1668.82C291.876 1636.18 275.556 1596.94 275.556 1551.11V1217.78H442.223V1551.11H775.556V1717.78H442.223ZM275.556 717.777V384.444C275.556 338.611 291.876 299.375 324.514 266.736C357.153 234.097 396.389 217.777 442.223 217.777H775.556V384.444H442.223V717.777H275.556ZM1608.89 717.777V384.444H1275.56V217.777H1608.89C1654.72 217.777 1693.96 234.097 1726.6 266.736C1759.24 299.375 1775.56 338.611 1775.56 384.444V717.777H1608.89Z" fill="white"/>
</g>
</svg>
